# xmcd CD database file
#
# Track frame offsets:
#	150
#	16202
#	30660
#	42455
#	56823
#	67272
#	78700
#	92283
#	106394
#	117262
#
# Disc length: 1887 seconds
#
# Revision: 9
# Processed by: cddbd v1.5.2PL0 Copyright (c) Steve Scherf et al.
# Submitted via: CDex 1.51
#
DISCID=83075d0a
DTITLE=Fabrizio De Andrè - Fabrizio De Andrè
DYEAR=1967
DGENRE=Musica Italiana
TTITLE0=Preghiera in gennaio
TTITLE1=Marcia nuziale
TTITLE2=Spiritual
TTITLE3=Si chiamava Gesù
TTITLE4=La canzone di Barbara
TTITLE5=Via del Campo
TTITLE6=La stagione del tuo amore
TTITLE7=Bocca di rosa
TTITLE8=La morte
TTITLE9=Carlo Martello ritorna dalla battaglia di Poitiers
EXTD=YEAR: 1967
EXTT0=
EXTT1=
EXTT2=
EXTT3=
EXTT4=
EXTT5=
EXTT6=
EXTT7=
EXTT8=
EXTT9=
PLAYORDER=
